<svg width="90" height="90" viewBox="0 0 90 90" fill="none" xmlns="http://www.w3.org/2000/svg">
<path d="M71.811 72H61.209C60.669 72 60.183 71.703 59.94 71.226L50.22 52.236L49.986 51.777C48.285 48.996 45.279 47.142 41.796 47.142H32.148V71.064C32.148 71.586 31.725 72.009 31.203 72.009H21.006C22.122 72.009 22.491 69.453 22.491 67.419V43.398L33.039 38.493L35.073 37.548L56.628 37.485C57.321 37.485 58.014 37.332 58.635 37.026C60.408 36.252 61.569 34.479 61.569 32.544C61.569 30.771 60.642 29.529 60.102 28.989C59.481 28.368 58.329 27.603 56.628 27.603H35.964L34.083 26.73L22.5 21.375L19.143 18L56.628 17.937C60.642 17.937 64.278 19.557 66.897 22.185C69.525 24.885 71.145 28.521 71.145 32.535C71.145 38.403 67.671 43.506 62.649 45.819C61.335 46.44 59.949 46.827 58.482 46.98C58.482 46.98 68.049 66.015 68.949 67.662C71.199 72.18 71.811 72 71.811 72Z" fill="#7216FF"/>
<path d="M41.166 32.364L31.374 36.909L22.329 41.112L19.395 42.48L22.329 35.514L23.652 32.391L22.329 29.259L19.395 22.293L22.329 23.652L32.139 28.188L41.166 32.364Z" fill="#7216FF"/>
</svg>
