<?xml version="1.0" encoding="utf-8"?>
<!-- Generator: Adobe Illustrator 27.0.0, SVG Export Plug-In . SVG Version: 6.00 Build 0)  -->
<svg version="1.1" id="Layer_2" xmlns="http://www.w3.org/2000/svg" xmlns:xlink="http://www.w3.org/1999/xlink" x="0px" y="0px"
	 viewBox="0 0 1000 1000" style="enable-background:new 0 0 1000 1000;" xml:space="preserve">
<style type="text/css">
	.st0{display:none;}
</style>
<path d="M797.9,800H680.1c-6,0-11.4-3.3-14.1-8.6l-108-211l-2.6-5.1c-18.9-30.9-52.3-51.5-91-51.5H357.2v265.8
	c0,5.8-4.7,10.5-10.5,10.5H233.4c12.4,0,16.5-28.4,16.5-51V482.2l117.2-54.5l22.6-10.5l239.5-0.7c7.7,0,15.4-1.7,22.3-5.1
	c19.7-8.6,32.6-28.3,32.6-49.8c0-19.7-10.3-33.5-16.3-39.5c-6.9-6.9-19.7-15.4-38.6-15.4H399.6l-20.9-9.7l-128.7-59.5L212.7,200
	l416.5-0.7c44.6,0,85,18,114.1,47.2c29.2,30,47.2,70.4,47.2,115c0,65.2-38.6,121.9-94.4,147.6c-14.6,6.9-30,11.2-46.3,12.9
	c0,0,106.3,211.5,116.3,229.8C791.1,802,797.9,800,797.9,800z"/>
<polygon points="457.4,359.6 348.6,410.1 248.1,456.8 215.5,472 248.1,394.6 262.8,359.9 248.1,325.1 215.5,247.7 248.1,262.8 
	357.1,313.2 "/>
<g id="horizontal" class="st0">
</g>
<g id="vertical_00000057847117891725194290000010888223604017627061_" class="st0">
</g>
</svg>
